<mxfile host="app.diagrams.net" modified="2023-09-01T18:20:39.454Z" agent="Mozilla/5.0 (X11; Linux x86_64) AppleWebKit/537.36 (KHTML, like Gecko) Chrome/116.0.0.0 Safari/537.36" etag="5xtQva99i2EoxPIihZ3Y" version="21.7.2" type="github">
  <diagram id="C5RBs43oDa-KdzZeNtuy" name="Page-1">
    <mxGraphModel dx="1259" dy="716" grid="1" gridSize="10" guides="1" tooltips="1" connect="1" arrows="1" fold="1" page="1" pageScale="1" pageWidth="827" pageHeight="1169" math="0" shadow="0">
      <root>
        <mxCell id="WIyWlLk6GJQsqaUBKTNV-0" />
        <mxCell id="WIyWlLk6GJQsqaUBKTNV-1" parent="WIyWlLk6GJQsqaUBKTNV-0" />
        <mxCell id="mxwFVXm17W9RLmr-c5UC-21" style="edgeStyle=orthogonalEdgeStyle;rounded=0;orthogonalLoop=1;jettySize=auto;html=1;entryX=0.5;entryY=0;entryDx=0;entryDy=0;" edge="1" parent="WIyWlLk6GJQsqaUBKTNV-1" source="mxwFVXm17W9RLmr-c5UC-1" target="mxwFVXm17W9RLmr-c5UC-5">
          <mxGeometry relative="1" as="geometry" />
        </mxCell>
        <mxCell id="mxwFVXm17W9RLmr-c5UC-1" value="START" style="ellipse;whiteSpace=wrap;html=1;" vertex="1" parent="WIyWlLk6GJQsqaUBKTNV-1">
          <mxGeometry x="353.75" y="20" width="90" height="50" as="geometry" />
        </mxCell>
        <mxCell id="mxwFVXm17W9RLmr-c5UC-28" value="" style="edgeStyle=orthogonalEdgeStyle;rounded=0;orthogonalLoop=1;jettySize=auto;html=1;" edge="1" parent="WIyWlLk6GJQsqaUBKTNV-1" source="mxwFVXm17W9RLmr-c5UC-5" target="mxwFVXm17W9RLmr-c5UC-27">
          <mxGeometry relative="1" as="geometry" />
        </mxCell>
        <mxCell id="mxwFVXm17W9RLmr-c5UC-35" style="edgeStyle=orthogonalEdgeStyle;rounded=0;orthogonalLoop=1;jettySize=auto;html=1;entryX=0.5;entryY=0;entryDx=0;entryDy=0;" edge="1" parent="WIyWlLk6GJQsqaUBKTNV-1" source="mxwFVXm17W9RLmr-c5UC-5" target="mxwFVXm17W9RLmr-c5UC-25">
          <mxGeometry relative="1" as="geometry" />
        </mxCell>
        <mxCell id="mxwFVXm17W9RLmr-c5UC-61" style="edgeStyle=orthogonalEdgeStyle;rounded=0;orthogonalLoop=1;jettySize=auto;html=1;entryX=0.5;entryY=0;entryDx=0;entryDy=0;" edge="1" parent="WIyWlLk6GJQsqaUBKTNV-1" source="mxwFVXm17W9RLmr-c5UC-5" target="mxwFVXm17W9RLmr-c5UC-56">
          <mxGeometry relative="1" as="geometry">
            <Array as="points">
              <mxPoint x="399" y="240" />
              <mxPoint x="620" y="240" />
            </Array>
          </mxGeometry>
        </mxCell>
        <mxCell id="mxwFVXm17W9RLmr-c5UC-5" value="WAIT FOR USER&lt;br&gt;ACTION" style="rounded=0;whiteSpace=wrap;html=1;" vertex="1" parent="WIyWlLk6GJQsqaUBKTNV-1">
          <mxGeometry x="338.75" y="140" width="120" height="60" as="geometry" />
        </mxCell>
        <mxCell id="mxwFVXm17W9RLmr-c5UC-47" style="edgeStyle=orthogonalEdgeStyle;rounded=0;orthogonalLoop=1;jettySize=auto;html=1;exitX=0.5;exitY=1;exitDx=0;exitDy=0;entryX=0.5;entryY=0;entryDx=0;entryDy=0;" edge="1" parent="WIyWlLk6GJQsqaUBKTNV-1" source="mxwFVXm17W9RLmr-c5UC-25" target="mxwFVXm17W9RLmr-c5UC-46">
          <mxGeometry relative="1" as="geometry" />
        </mxCell>
        <mxCell id="mxwFVXm17W9RLmr-c5UC-25" value="USER HOVERS OVER&lt;br&gt;GRID SQUARE" style="shape=parallelogram;perimeter=parallelogramPerimeter;whiteSpace=wrap;html=1;fixedSize=1;" vertex="1" parent="WIyWlLk6GJQsqaUBKTNV-1">
          <mxGeometry x="190" y="280" width="160" height="60" as="geometry" />
        </mxCell>
        <mxCell id="mxwFVXm17W9RLmr-c5UC-30" value="" style="edgeStyle=orthogonalEdgeStyle;rounded=0;orthogonalLoop=1;jettySize=auto;html=1;" edge="1" parent="WIyWlLk6GJQsqaUBKTNV-1" source="mxwFVXm17W9RLmr-c5UC-27" target="mxwFVXm17W9RLmr-c5UC-29">
          <mxGeometry relative="1" as="geometry" />
        </mxCell>
        <mxCell id="mxwFVXm17W9RLmr-c5UC-27" value="USER CLICKS&lt;br&gt;RESIZE BUTTON" style="shape=parallelogram;perimeter=parallelogramPerimeter;whiteSpace=wrap;html=1;fixedSize=1;" vertex="1" parent="WIyWlLk6GJQsqaUBKTNV-1">
          <mxGeometry x="370" y="280" width="160" height="60" as="geometry" />
        </mxCell>
        <mxCell id="mxwFVXm17W9RLmr-c5UC-39" value="" style="edgeStyle=orthogonalEdgeStyle;rounded=0;orthogonalLoop=1;jettySize=auto;html=1;" edge="1" parent="WIyWlLk6GJQsqaUBKTNV-1" source="mxwFVXm17W9RLmr-c5UC-29" target="mxwFVXm17W9RLmr-c5UC-38">
          <mxGeometry relative="1" as="geometry" />
        </mxCell>
        <mxCell id="mxwFVXm17W9RLmr-c5UC-29" value="PROMPT USER&lt;br&gt;GRID SIDE LENGTH" style="shape=parallelogram;perimeter=parallelogramPerimeter;whiteSpace=wrap;html=1;fixedSize=1;" vertex="1" parent="WIyWlLk6GJQsqaUBKTNV-1">
          <mxGeometry x="370" y="390" width="160" height="60" as="geometry" />
        </mxCell>
        <mxCell id="mxwFVXm17W9RLmr-c5UC-53" style="edgeStyle=orthogonalEdgeStyle;rounded=0;orthogonalLoop=1;jettySize=auto;html=1;entryX=0;entryY=0.5;entryDx=0;entryDy=0;" edge="1" parent="WIyWlLk6GJQsqaUBKTNV-1" source="mxwFVXm17W9RLmr-c5UC-36" target="mxwFVXm17W9RLmr-c5UC-41">
          <mxGeometry relative="1" as="geometry">
            <Array as="points">
              <mxPoint x="100" y="660" />
            </Array>
          </mxGeometry>
        </mxCell>
        <mxCell id="mxwFVXm17W9RLmr-c5UC-36" value="ASSIGN GRID SQUARE RANDOM COLOR" style="whiteSpace=wrap;html=1;" vertex="1" parent="WIyWlLk6GJQsqaUBKTNV-1">
          <mxGeometry x="20" y="400" width="150" height="60" as="geometry" />
        </mxCell>
        <mxCell id="mxwFVXm17W9RLmr-c5UC-42" value="" style="edgeStyle=orthogonalEdgeStyle;rounded=0;orthogonalLoop=1;jettySize=auto;html=1;" edge="1" parent="WIyWlLk6GJQsqaUBKTNV-1" source="mxwFVXm17W9RLmr-c5UC-38" target="mxwFVXm17W9RLmr-c5UC-41">
          <mxGeometry relative="1" as="geometry" />
        </mxCell>
        <mxCell id="mxwFVXm17W9RLmr-c5UC-38" value="CLEAR GRID AND&lt;br&gt;UPDATE SIZE" style="whiteSpace=wrap;html=1;" vertex="1" parent="WIyWlLk6GJQsqaUBKTNV-1">
          <mxGeometry x="372.18" y="480" width="155.63" height="60" as="geometry" />
        </mxCell>
        <mxCell id="mxwFVXm17W9RLmr-c5UC-55" style="edgeStyle=orthogonalEdgeStyle;rounded=0;orthogonalLoop=1;jettySize=auto;html=1;entryX=1;entryY=0.5;entryDx=0;entryDy=0;" edge="1" parent="WIyWlLk6GJQsqaUBKTNV-1" source="mxwFVXm17W9RLmr-c5UC-41" target="mxwFVXm17W9RLmr-c5UC-5">
          <mxGeometry relative="1" as="geometry">
            <Array as="points">
              <mxPoint x="740" y="660" />
              <mxPoint x="740" y="170" />
            </Array>
          </mxGeometry>
        </mxCell>
        <mxCell id="mxwFVXm17W9RLmr-c5UC-41" value="" style="whiteSpace=wrap;html=1;" vertex="1" parent="WIyWlLk6GJQsqaUBKTNV-1">
          <mxGeometry x="390.005" y="630" width="120" height="60" as="geometry" />
        </mxCell>
        <mxCell id="mxwFVXm17W9RLmr-c5UC-48" value="" style="edgeStyle=orthogonalEdgeStyle;rounded=0;orthogonalLoop=1;jettySize=auto;html=1;" edge="1" parent="WIyWlLk6GJQsqaUBKTNV-1" source="mxwFVXm17W9RLmr-c5UC-46" target="mxwFVXm17W9RLmr-c5UC-36">
          <mxGeometry relative="1" as="geometry" />
        </mxCell>
        <mxCell id="mxwFVXm17W9RLmr-c5UC-52" value="" style="edgeStyle=orthogonalEdgeStyle;rounded=0;orthogonalLoop=1;jettySize=auto;html=1;" edge="1" parent="WIyWlLk6GJQsqaUBKTNV-1" source="mxwFVXm17W9RLmr-c5UC-46" target="mxwFVXm17W9RLmr-c5UC-51">
          <mxGeometry relative="1" as="geometry" />
        </mxCell>
        <mxCell id="mxwFVXm17W9RLmr-c5UC-46" value="FIRST TIME?" style="rhombus;whiteSpace=wrap;html=1;" vertex="1" parent="WIyWlLk6GJQsqaUBKTNV-1">
          <mxGeometry x="220" y="380" width="100" height="100" as="geometry" />
        </mxCell>
        <mxCell id="mxwFVXm17W9RLmr-c5UC-49" value="YES" style="text;html=1;strokeColor=none;fillColor=none;align=center;verticalAlign=middle;whiteSpace=wrap;rounded=0;" vertex="1" parent="WIyWlLk6GJQsqaUBKTNV-1">
          <mxGeometry x="170" y="400" width="60" height="30" as="geometry" />
        </mxCell>
        <mxCell id="mxwFVXm17W9RLmr-c5UC-50" value="NO" style="text;html=1;strokeColor=none;fillColor=none;align=center;verticalAlign=middle;whiteSpace=wrap;rounded=0;" vertex="1" parent="WIyWlLk6GJQsqaUBKTNV-1">
          <mxGeometry x="278.74" y="470" width="60" height="30" as="geometry" />
        </mxCell>
        <mxCell id="mxwFVXm17W9RLmr-c5UC-54" style="edgeStyle=orthogonalEdgeStyle;rounded=0;orthogonalLoop=1;jettySize=auto;html=1;entryX=0;entryY=0.5;entryDx=0;entryDy=0;" edge="1" parent="WIyWlLk6GJQsqaUBKTNV-1" source="mxwFVXm17W9RLmr-c5UC-51" target="mxwFVXm17W9RLmr-c5UC-41">
          <mxGeometry relative="1" as="geometry">
            <Array as="points">
              <mxPoint x="270" y="660" />
            </Array>
          </mxGeometry>
        </mxCell>
        <mxCell id="mxwFVXm17W9RLmr-c5UC-51" value="INCREASE DARKNESS BY 10%" style="rounded=0;whiteSpace=wrap;html=1;" vertex="1" parent="WIyWlLk6GJQsqaUBKTNV-1">
          <mxGeometry x="210" y="510" width="120" height="60" as="geometry" />
        </mxCell>
        <mxCell id="mxwFVXm17W9RLmr-c5UC-63" value="" style="edgeStyle=orthogonalEdgeStyle;rounded=0;orthogonalLoop=1;jettySize=auto;html=1;" edge="1" parent="WIyWlLk6GJQsqaUBKTNV-1" source="mxwFVXm17W9RLmr-c5UC-56" target="mxwFVXm17W9RLmr-c5UC-62">
          <mxGeometry relative="1" as="geometry" />
        </mxCell>
        <mxCell id="mxwFVXm17W9RLmr-c5UC-56" value="USER CLICKS&lt;br&gt;RESET BUTTON" style="shape=parallelogram;perimeter=parallelogramPerimeter;whiteSpace=wrap;html=1;fixedSize=1;" vertex="1" parent="WIyWlLk6GJQsqaUBKTNV-1">
          <mxGeometry x="540" y="280" width="160" height="60" as="geometry" />
        </mxCell>
        <mxCell id="mxwFVXm17W9RLmr-c5UC-64" style="edgeStyle=orthogonalEdgeStyle;rounded=0;orthogonalLoop=1;jettySize=auto;html=1;entryX=0.5;entryY=0;entryDx=0;entryDy=0;" edge="1" parent="WIyWlLk6GJQsqaUBKTNV-1" source="mxwFVXm17W9RLmr-c5UC-62" target="mxwFVXm17W9RLmr-c5UC-41">
          <mxGeometry relative="1" as="geometry">
            <Array as="points">
              <mxPoint x="620" y="590" />
              <mxPoint x="450" y="590" />
            </Array>
          </mxGeometry>
        </mxCell>
        <mxCell id="mxwFVXm17W9RLmr-c5UC-62" value="RESET GRID" style="whiteSpace=wrap;html=1;" vertex="1" parent="WIyWlLk6GJQsqaUBKTNV-1">
          <mxGeometry x="560" y="390" width="120" height="60" as="geometry" />
        </mxCell>
      </root>
    </mxGraphModel>
  </diagram>
</mxfile>
